<mxfile host="app.diagrams.net" agent="Mozilla/5.0 (Windows NT 10.0; Win64; x64) AppleWebKit/537.36 (KHTML, like Gecko) Chrome/127.0.0.0 Safari/537.36" version="24.7.6">
  <diagram name="Page-1" id="GBjrYx-1_ZcpEQCXF1wf">
    <mxGraphModel dx="474" dy="288" grid="1" gridSize="10" guides="1" tooltips="1" connect="1" arrows="1" fold="1" page="1" pageScale="1" pageWidth="850" pageHeight="1100" math="0" shadow="0">
      <root>
        <mxCell id="0" />
        <mxCell id="1" parent="0" />
        <mxCell id="IjLrzArbc9yDgUIWdzht-1" value="mahasiswa" style="whiteSpace=wrap;html=1;align=center;" vertex="1" parent="1">
          <mxGeometry x="160" y="220" width="100" height="40" as="geometry" />
        </mxCell>
        <mxCell id="IjLrzArbc9yDgUIWdzht-3" value="mendaftar" style="shape=rhombus;perimeter=rhombusPerimeter;whiteSpace=wrap;html=1;align=center;" vertex="1" parent="1">
          <mxGeometry x="390" y="180" width="120" height="120" as="geometry" />
        </mxCell>
        <mxCell id="IjLrzArbc9yDgUIWdzht-6" value="anggota&lt;div&gt;perpustakan&lt;/div&gt;" style="whiteSpace=wrap;html=1;align=center;" vertex="1" parent="1">
          <mxGeometry x="630" y="220" width="100" height="40" as="geometry" />
        </mxCell>
        <mxCell id="IjLrzArbc9yDgUIWdzht-8" value="" style="endArrow=none;html=1;rounded=0;entryX=0;entryY=0.5;entryDx=0;entryDy=0;" edge="1" parent="1" source="IjLrzArbc9yDgUIWdzht-1" target="IjLrzArbc9yDgUIWdzht-3">
          <mxGeometry relative="1" as="geometry">
            <mxPoint x="280" y="270" as="sourcePoint" />
            <mxPoint x="420" y="240" as="targetPoint" />
          </mxGeometry>
        </mxCell>
        <mxCell id="IjLrzArbc9yDgUIWdzht-9" value="" style="endArrow=none;html=1;rounded=0;exitX=1;exitY=0.5;exitDx=0;exitDy=0;" edge="1" parent="1" source="IjLrzArbc9yDgUIWdzht-3" target="IjLrzArbc9yDgUIWdzht-6">
          <mxGeometry relative="1" as="geometry">
            <mxPoint x="370" y="380" as="sourcePoint" />
            <mxPoint x="500" y="310" as="targetPoint" />
          </mxGeometry>
        </mxCell>
        <mxCell id="IjLrzArbc9yDgUIWdzht-11" value="nama_tengah" style="ellipse;whiteSpace=wrap;html=1;align=center;" vertex="1" parent="1">
          <mxGeometry x="160" y="20" width="100" height="40" as="geometry" />
        </mxCell>
        <mxCell id="IjLrzArbc9yDgUIWdzht-12" value="alamat" style="ellipse;whiteSpace=wrap;html=1;align=center;" vertex="1" parent="1">
          <mxGeometry x="50" y="270" width="80" height="40" as="geometry" />
        </mxCell>
        <mxCell id="IjLrzArbc9yDgUIWdzht-13" value="jurusan" style="ellipse;whiteSpace=wrap;html=1;align=center;" vertex="1" parent="1">
          <mxGeometry y="220" width="80" height="40" as="geometry" />
        </mxCell>
        <mxCell id="IjLrzArbc9yDgUIWdzht-14" value="nim" style="ellipse;whiteSpace=wrap;html=1;align=center;fontStyle=4;" vertex="1" parent="1">
          <mxGeometry x="50" y="160" width="80" height="40" as="geometry" />
        </mxCell>
        <mxCell id="IjLrzArbc9yDgUIWdzht-15" value="" style="endArrow=none;html=1;rounded=0;entryX=0;entryY=0.5;entryDx=0;entryDy=0;" edge="1" parent="1" source="IjLrzArbc9yDgUIWdzht-13" target="IjLrzArbc9yDgUIWdzht-1">
          <mxGeometry relative="1" as="geometry">
            <mxPoint x="120" y="241" as="sourcePoint" />
            <mxPoint x="160" y="237.93" as="targetPoint" />
          </mxGeometry>
        </mxCell>
        <mxCell id="IjLrzArbc9yDgUIWdzht-16" value="" style="endArrow=none;html=1;rounded=0;exitX=0.688;exitY=0.985;exitDx=0;exitDy=0;exitPerimeter=0;" edge="1" parent="1" source="IjLrzArbc9yDgUIWdzht-14">
          <mxGeometry relative="1" as="geometry">
            <mxPoint x="60" y="220" as="sourcePoint" />
            <mxPoint x="160" y="240" as="targetPoint" />
          </mxGeometry>
        </mxCell>
        <mxCell id="IjLrzArbc9yDgUIWdzht-17" value="" style="endArrow=none;html=1;rounded=0;exitX=0.715;exitY=0.055;exitDx=0;exitDy=0;exitPerimeter=0;" edge="1" parent="1" source="IjLrzArbc9yDgUIWdzht-12">
          <mxGeometry relative="1" as="geometry">
            <mxPoint x="60" y="220" as="sourcePoint" />
            <mxPoint x="160" y="240" as="targetPoint" />
          </mxGeometry>
        </mxCell>
        <mxCell id="IjLrzArbc9yDgUIWdzht-18" value="nama" style="ellipse;whiteSpace=wrap;html=1;align=center;" vertex="1" parent="1">
          <mxGeometry x="170" y="120" width="70" height="40" as="geometry" />
        </mxCell>
        <mxCell id="IjLrzArbc9yDgUIWdzht-19" value="nama_depan" style="ellipse;whiteSpace=wrap;html=1;align=center;" vertex="1" parent="1">
          <mxGeometry x="70" y="70" width="100" height="40" as="geometry" />
        </mxCell>
        <mxCell id="IjLrzArbc9yDgUIWdzht-20" value="nama_belakang" style="ellipse;whiteSpace=wrap;html=1;align=center;" vertex="1" parent="1">
          <mxGeometry x="260" y="70" width="100" height="40" as="geometry" />
        </mxCell>
        <mxCell id="IjLrzArbc9yDgUIWdzht-21" value="" style="endArrow=none;html=1;rounded=0;entryX=0.577;entryY=-0.025;entryDx=0;entryDy=0;entryPerimeter=0;exitX=0.542;exitY=0.931;exitDx=0;exitDy=0;exitPerimeter=0;" edge="1" parent="1" source="IjLrzArbc9yDgUIWdzht-18" target="IjLrzArbc9yDgUIWdzht-1">
          <mxGeometry relative="1" as="geometry">
            <mxPoint x="210" y="200" as="sourcePoint" />
            <mxPoint x="120" y="120" as="targetPoint" />
          </mxGeometry>
        </mxCell>
        <mxCell id="IjLrzArbc9yDgUIWdzht-23" value="" style="endArrow=none;html=1;rounded=0;exitX=1;exitY=0.5;exitDx=0;exitDy=0;entryX=0.5;entryY=0;entryDx=0;entryDy=0;" edge="1" parent="1" source="IjLrzArbc9yDgUIWdzht-19" target="IjLrzArbc9yDgUIWdzht-18">
          <mxGeometry relative="1" as="geometry">
            <mxPoint x="90" y="100" as="sourcePoint" />
            <mxPoint x="250" y="100" as="targetPoint" />
          </mxGeometry>
        </mxCell>
        <mxCell id="IjLrzArbc9yDgUIWdzht-24" value="" style="endArrow=none;html=1;rounded=0;entryX=0;entryY=0.5;entryDx=0;entryDy=0;exitX=0.519;exitY=0.002;exitDx=0;exitDy=0;exitPerimeter=0;" edge="1" parent="1" source="IjLrzArbc9yDgUIWdzht-18" target="IjLrzArbc9yDgUIWdzht-20">
          <mxGeometry relative="1" as="geometry">
            <mxPoint x="210" y="120" as="sourcePoint" />
            <mxPoint x="210" y="90" as="targetPoint" />
          </mxGeometry>
        </mxCell>
        <mxCell id="IjLrzArbc9yDgUIWdzht-27" value="" style="endArrow=none;html=1;rounded=0;entryX=0.519;entryY=0.997;entryDx=0;entryDy=0;entryPerimeter=0;exitX=0.519;exitY=-0.016;exitDx=0;exitDy=0;exitPerimeter=0;" edge="1" parent="1" source="IjLrzArbc9yDgUIWdzht-18" target="IjLrzArbc9yDgUIWdzht-11">
          <mxGeometry relative="1" as="geometry">
            <mxPoint x="210" y="120" as="sourcePoint" />
            <mxPoint x="280" y="140" as="targetPoint" />
          </mxGeometry>
        </mxCell>
        <mxCell id="IjLrzArbc9yDgUIWdzht-29" value="jurusan" style="ellipse;whiteSpace=wrap;html=1;align=center;" vertex="1" parent="1">
          <mxGeometry x="380" y="70" width="77.5" height="40" as="geometry" />
        </mxCell>
        <mxCell id="IjLrzArbc9yDgUIWdzht-30" value="alamat" style="ellipse;whiteSpace=wrap;html=1;align=center;" vertex="1" parent="1">
          <mxGeometry x="330" y="130" width="80" height="40" as="geometry" />
        </mxCell>
        <mxCell id="IjLrzArbc9yDgUIWdzht-31" value="nama" style="ellipse;whiteSpace=wrap;html=1;align=center;" vertex="1" parent="1">
          <mxGeometry x="500" y="120" width="80" height="40" as="geometry" />
        </mxCell>
        <mxCell id="IjLrzArbc9yDgUIWdzht-32" value="nim" style="ellipse;whiteSpace=wrap;html=1;align=center;fontStyle=4;" vertex="1" parent="1">
          <mxGeometry x="470" y="70" width="80" height="40" as="geometry" />
        </mxCell>
        <mxCell id="IjLrzArbc9yDgUIWdzht-33" value="" style="endArrow=none;html=1;rounded=0;entryX=0.443;entryY=0.068;entryDx=0;entryDy=0;entryPerimeter=0;" edge="1" parent="1" target="IjLrzArbc9yDgUIWdzht-3">
          <mxGeometry relative="1" as="geometry">
            <mxPoint x="400" y="160" as="sourcePoint" />
            <mxPoint x="560" y="160" as="targetPoint" />
          </mxGeometry>
        </mxCell>
        <mxCell id="IjLrzArbc9yDgUIWdzht-34" value="" style="endArrow=none;html=1;rounded=0;entryX=0.5;entryY=1;entryDx=0;entryDy=0;exitX=0.637;exitY=0.108;exitDx=0;exitDy=0;exitPerimeter=0;" edge="1" parent="1" source="IjLrzArbc9yDgUIWdzht-3" target="IjLrzArbc9yDgUIWdzht-31">
          <mxGeometry relative="1" as="geometry">
            <mxPoint x="420" y="150" as="sourcePoint" />
            <mxPoint x="580" y="150" as="targetPoint" />
          </mxGeometry>
        </mxCell>
        <mxCell id="IjLrzArbc9yDgUIWdzht-35" value="" style="endArrow=none;html=1;rounded=0;exitX=0.5;exitY=1;exitDx=0;exitDy=0;entryX=0.5;entryY=0;entryDx=0;entryDy=0;" edge="1" parent="1" source="IjLrzArbc9yDgUIWdzht-29" target="IjLrzArbc9yDgUIWdzht-3">
          <mxGeometry relative="1" as="geometry">
            <mxPoint x="300" y="210" as="sourcePoint" />
            <mxPoint x="460" y="210" as="targetPoint" />
          </mxGeometry>
        </mxCell>
        <mxCell id="IjLrzArbc9yDgUIWdzht-36" value="" style="endArrow=none;html=1;rounded=0;exitX=0.54;exitY=0.025;exitDx=0;exitDy=0;exitPerimeter=0;" edge="1" parent="1" source="IjLrzArbc9yDgUIWdzht-3" target="IjLrzArbc9yDgUIWdzht-32">
          <mxGeometry relative="1" as="geometry">
            <mxPoint x="300" y="210" as="sourcePoint" />
            <mxPoint x="460" y="210" as="targetPoint" />
          </mxGeometry>
        </mxCell>
        <mxCell id="IjLrzArbc9yDgUIWdzht-37" value="nomor _anggota" style="ellipse;whiteSpace=wrap;html=1;align=center;fontStyle=4;" vertex="1" parent="1">
          <mxGeometry x="560" y="150" width="100" height="40" as="geometry" />
        </mxCell>
        <mxCell id="IjLrzArbc9yDgUIWdzht-38" value="jurusan" style="ellipse;whiteSpace=wrap;html=1;align=center;" vertex="1" parent="1">
          <mxGeometry x="680" y="80" width="90" height="40" as="geometry" />
        </mxCell>
        <mxCell id="IjLrzArbc9yDgUIWdzht-39" value="masa_berlaku" style="ellipse;whiteSpace=wrap;html=1;align=center;" vertex="1" parent="1">
          <mxGeometry x="710" y="150" width="100" height="40" as="geometry" />
        </mxCell>
        <mxCell id="IjLrzArbc9yDgUIWdzht-40" value="nama" style="ellipse;whiteSpace=wrap;html=1;align=center;" vertex="1" parent="1">
          <mxGeometry x="580" y="80" width="90" height="40" as="geometry" />
        </mxCell>
        <mxCell id="IjLrzArbc9yDgUIWdzht-41" value="" style="endArrow=none;html=1;rounded=0;exitX=0.651;exitY=0.971;exitDx=0;exitDy=0;exitPerimeter=0;entryX=0.586;entryY=0.004;entryDx=0;entryDy=0;entryPerimeter=0;" edge="1" parent="1" source="IjLrzArbc9yDgUIWdzht-37" target="IjLrzArbc9yDgUIWdzht-6">
          <mxGeometry relative="1" as="geometry">
            <mxPoint x="650" y="310" as="sourcePoint" />
            <mxPoint x="810" y="310" as="targetPoint" />
          </mxGeometry>
        </mxCell>
        <mxCell id="IjLrzArbc9yDgUIWdzht-42" value="" style="endArrow=none;html=1;rounded=0;exitX=0.631;exitY=-0.004;exitDx=0;exitDy=0;exitPerimeter=0;" edge="1" parent="1" source="IjLrzArbc9yDgUIWdzht-6" target="IjLrzArbc9yDgUIWdzht-39">
          <mxGeometry relative="1" as="geometry">
            <mxPoint x="680" y="260" as="sourcePoint" />
            <mxPoint x="840" y="260" as="targetPoint" />
          </mxGeometry>
        </mxCell>
        <mxCell id="IjLrzArbc9yDgUIWdzht-44" value="" style="endArrow=none;html=1;rounded=0;entryX=0.261;entryY=0.941;entryDx=0;entryDy=0;entryPerimeter=0;exitX=0.61;exitY=0.008;exitDx=0;exitDy=0;exitPerimeter=0;" edge="1" parent="1" source="IjLrzArbc9yDgUIWdzht-6" target="IjLrzArbc9yDgUIWdzht-38">
          <mxGeometry relative="1" as="geometry">
            <mxPoint x="690" y="220" as="sourcePoint" />
            <mxPoint x="830" y="200" as="targetPoint" />
          </mxGeometry>
        </mxCell>
        <mxCell id="IjLrzArbc9yDgUIWdzht-45" value="" style="endArrow=none;html=1;rounded=0;exitX=0.752;exitY=0.913;exitDx=0;exitDy=0;exitPerimeter=0;entryX=0.592;entryY=0.006;entryDx=0;entryDy=0;entryPerimeter=0;" edge="1" parent="1" source="IjLrzArbc9yDgUIWdzht-40" target="IjLrzArbc9yDgUIWdzht-6">
          <mxGeometry relative="1" as="geometry">
            <mxPoint x="740" y="230" as="sourcePoint" />
            <mxPoint x="900" y="230" as="targetPoint" />
          </mxGeometry>
        </mxCell>
        <mxCell id="IjLrzArbc9yDgUIWdzht-46" value="buku" style="whiteSpace=wrap;html=1;align=center;" vertex="1" parent="1">
          <mxGeometry x="630" y="550" width="100" height="40" as="geometry" />
        </mxCell>
        <mxCell id="IjLrzArbc9yDgUIWdzht-48" value="meminjam" style="shape=rhombus;perimeter=rhombusPerimeter;whiteSpace=wrap;html=1;align=center;" vertex="1" parent="1">
          <mxGeometry x="620" y="340" width="120" height="90" as="geometry" />
        </mxCell>
        <mxCell id="IjLrzArbc9yDgUIWdzht-50" value="" style="endArrow=none;html=1;rounded=0;entryX=0.5;entryY=1;entryDx=0;entryDy=0;exitX=0.5;exitY=0;exitDx=0;exitDy=0;" edge="1" parent="1" source="IjLrzArbc9yDgUIWdzht-48" target="IjLrzArbc9yDgUIWdzht-6">
          <mxGeometry relative="1" as="geometry">
            <mxPoint x="570" y="289.58" as="sourcePoint" />
            <mxPoint x="730" y="289.58" as="targetPoint" />
          </mxGeometry>
        </mxCell>
        <mxCell id="IjLrzArbc9yDgUIWdzht-51" value="" style="endArrow=none;html=1;rounded=0;entryX=0.5;entryY=0;entryDx=0;entryDy=0;exitX=0.5;exitY=1;exitDx=0;exitDy=0;" edge="1" parent="1" source="IjLrzArbc9yDgUIWdzht-48" target="IjLrzArbc9yDgUIWdzht-46">
          <mxGeometry relative="1" as="geometry">
            <mxPoint x="590" y="500" as="sourcePoint" />
            <mxPoint x="750" y="500" as="targetPoint" />
          </mxGeometry>
        </mxCell>
        <mxCell id="IjLrzArbc9yDgUIWdzht-52" value="judul_buku" style="ellipse;whiteSpace=wrap;html=1;align=center;" vertex="1" parent="1">
          <mxGeometry x="760" y="380" width="100" height="40" as="geometry" />
        </mxCell>
        <mxCell id="IjLrzArbc9yDgUIWdzht-53" value="tanggal_pinjam" style="ellipse;whiteSpace=wrap;html=1;align=center;" vertex="1" parent="1">
          <mxGeometry x="500" y="400" width="100" height="30" as="geometry" />
        </mxCell>
        <mxCell id="IjLrzArbc9yDgUIWdzht-54" value="kode_peminjaman" style="ellipse;whiteSpace=wrap;html=1;align=center;" vertex="1" parent="1">
          <mxGeometry x="550" y="290" width="110" height="40" as="geometry" />
        </mxCell>
        <mxCell id="IjLrzArbc9yDgUIWdzht-55" value="tanggal_kembali" style="ellipse;whiteSpace=wrap;html=1;align=center;" vertex="1" parent="1">
          <mxGeometry x="500" y="340" width="100" height="40" as="geometry" />
        </mxCell>
        <mxCell id="IjLrzArbc9yDgUIWdzht-56" value="denda" style="ellipse;whiteSpace=wrap;html=1;align=center;" vertex="1" parent="1">
          <mxGeometry x="750" y="430" width="80" height="40" as="geometry" />
        </mxCell>
        <mxCell id="IjLrzArbc9yDgUIWdzht-57" value="nomor_buku" style="ellipse;whiteSpace=wrap;html=1;align=center;fontStyle=4;" vertex="1" parent="1">
          <mxGeometry x="760" y="330" width="100" height="40" as="geometry" />
        </mxCell>
        <mxCell id="IjLrzArbc9yDgUIWdzht-58" value="nomor_anggota" style="ellipse;whiteSpace=wrap;html=1;align=center;fontStyle=4;" vertex="1" parent="1">
          <mxGeometry x="700" y="280" width="100" height="40" as="geometry" />
        </mxCell>
        <mxCell id="IjLrzArbc9yDgUIWdzht-59" value="" style="endArrow=none;html=1;rounded=0;exitX=0.5;exitY=1;exitDx=0;exitDy=0;entryX=0.106;entryY=0.384;entryDx=0;entryDy=0;entryPerimeter=0;" edge="1" parent="1" source="IjLrzArbc9yDgUIWdzht-54" target="IjLrzArbc9yDgUIWdzht-48">
          <mxGeometry relative="1" as="geometry">
            <mxPoint x="460" y="384.52" as="sourcePoint" />
            <mxPoint x="620" y="380" as="targetPoint" />
          </mxGeometry>
        </mxCell>
        <mxCell id="IjLrzArbc9yDgUIWdzht-60" value="" style="endArrow=none;html=1;rounded=0;entryX=0;entryY=0.5;entryDx=0;entryDy=0;" edge="1" parent="1" source="IjLrzArbc9yDgUIWdzht-55" target="IjLrzArbc9yDgUIWdzht-48">
          <mxGeometry relative="1" as="geometry">
            <mxPoint x="300" y="380" as="sourcePoint" />
            <mxPoint x="460" y="380" as="targetPoint" />
          </mxGeometry>
        </mxCell>
        <mxCell id="IjLrzArbc9yDgUIWdzht-61" value="" style="endArrow=none;html=1;rounded=0;exitX=1;exitY=0.5;exitDx=0;exitDy=0;entryX=0.052;entryY=0.57;entryDx=0;entryDy=0;entryPerimeter=0;" edge="1" parent="1" source="IjLrzArbc9yDgUIWdzht-53" target="IjLrzArbc9yDgUIWdzht-48">
          <mxGeometry relative="1" as="geometry">
            <mxPoint x="330" y="440" as="sourcePoint" />
            <mxPoint x="490" y="440" as="targetPoint" />
          </mxGeometry>
        </mxCell>
        <mxCell id="IjLrzArbc9yDgUIWdzht-66" value="" style="endArrow=none;html=1;rounded=0;exitX=0.659;exitY=0.175;exitDx=0;exitDy=0;exitPerimeter=0;entryX=0.268;entryY=0.971;entryDx=0;entryDy=0;entryPerimeter=0;" edge="1" parent="1" source="IjLrzArbc9yDgUIWdzht-48" target="IjLrzArbc9yDgUIWdzht-58">
          <mxGeometry relative="1" as="geometry">
            <mxPoint x="810" y="240" as="sourcePoint" />
            <mxPoint x="970" y="240" as="targetPoint" />
          </mxGeometry>
        </mxCell>
        <mxCell id="IjLrzArbc9yDgUIWdzht-67" value="" style="endArrow=none;html=1;rounded=0;exitX=0.815;exitY=0.34;exitDx=0;exitDy=0;exitPerimeter=0;entryX=0.068;entryY=0.76;entryDx=0;entryDy=0;entryPerimeter=0;" edge="1" parent="1" source="IjLrzArbc9yDgUIWdzht-48" target="IjLrzArbc9yDgUIWdzht-57">
          <mxGeometry relative="1" as="geometry">
            <mxPoint x="820" y="280" as="sourcePoint" />
            <mxPoint x="980" y="280" as="targetPoint" />
          </mxGeometry>
        </mxCell>
        <mxCell id="IjLrzArbc9yDgUIWdzht-68" value="" style="endArrow=none;html=1;rounded=0;entryX=0.026;entryY=0.682;entryDx=0;entryDy=0;entryPerimeter=0;exitX=0.929;exitY=0.556;exitDx=0;exitDy=0;exitPerimeter=0;" edge="1" parent="1" source="IjLrzArbc9yDgUIWdzht-48" target="IjLrzArbc9yDgUIWdzht-52">
          <mxGeometry relative="1" as="geometry">
            <mxPoint x="870" y="320" as="sourcePoint" />
            <mxPoint x="1030" y="320" as="targetPoint" />
          </mxGeometry>
        </mxCell>
        <mxCell id="IjLrzArbc9yDgUIWdzht-69" value="" style="endArrow=none;html=1;rounded=0;exitX=0.833;exitY=0.667;exitDx=0;exitDy=0;exitPerimeter=0;entryX=0.29;entryY=0.073;entryDx=0;entryDy=0;entryPerimeter=0;" edge="1" parent="1" source="IjLrzArbc9yDgUIWdzht-48" target="IjLrzArbc9yDgUIWdzht-56">
          <mxGeometry relative="1" as="geometry">
            <mxPoint x="890" y="360" as="sourcePoint" />
            <mxPoint x="770" y="430" as="targetPoint" />
          </mxGeometry>
        </mxCell>
        <mxCell id="IjLrzArbc9yDgUIWdzht-70" value="nomor_buku" style="ellipse;whiteSpace=wrap;html=1;align=center;fontStyle=4;" vertex="1" parent="1">
          <mxGeometry x="520" y="620" width="100" height="40" as="geometry" />
        </mxCell>
        <mxCell id="IjLrzArbc9yDgUIWdzht-71" value="judul_buku" style="ellipse;whiteSpace=wrap;html=1;align=center;" vertex="1" parent="1">
          <mxGeometry x="510" y="570" width="100" height="40" as="geometry" />
        </mxCell>
        <mxCell id="IjLrzArbc9yDgUIWdzht-72" value="pengarang" style="ellipse;whiteSpace=wrap;html=1;align=center;" vertex="1" parent="1">
          <mxGeometry x="760" y="570" width="100" height="40" as="geometry" />
        </mxCell>
        <mxCell id="IjLrzArbc9yDgUIWdzht-73" value="jenis_buku" style="ellipse;whiteSpace=wrap;html=1;align=center;" vertex="1" parent="1">
          <mxGeometry x="750" y="620" width="100" height="40" as="geometry" />
        </mxCell>
        <mxCell id="IjLrzArbc9yDgUIWdzht-74" value="penerbit" style="ellipse;whiteSpace=wrap;html=1;align=center;" vertex="1" parent="1">
          <mxGeometry x="680" y="670" width="100" height="40" as="geometry" />
        </mxCell>
        <mxCell id="IjLrzArbc9yDgUIWdzht-75" value="tahun_terbit" style="ellipse;whiteSpace=wrap;html=1;align=center;" vertex="1" parent="1">
          <mxGeometry x="560" y="670" width="100" height="40" as="geometry" />
        </mxCell>
        <mxCell id="IjLrzArbc9yDgUIWdzht-76" value="" style="endArrow=none;html=1;rounded=0;entryX=0.5;entryY=1;entryDx=0;entryDy=0;exitX=0.914;exitY=0.76;exitDx=0;exitDy=0;exitPerimeter=0;" edge="1" parent="1" source="IjLrzArbc9yDgUIWdzht-71" target="IjLrzArbc9yDgUIWdzht-46">
          <mxGeometry relative="1" as="geometry">
            <mxPoint x="550" y="610" as="sourcePoint" />
            <mxPoint x="710" y="610" as="targetPoint" />
          </mxGeometry>
        </mxCell>
        <mxCell id="IjLrzArbc9yDgUIWdzht-77" value="" style="endArrow=none;html=1;rounded=0;entryX=0.5;entryY=1;entryDx=0;entryDy=0;exitX=0.961;exitY=0.354;exitDx=0;exitDy=0;exitPerimeter=0;" edge="1" parent="1" source="IjLrzArbc9yDgUIWdzht-70" target="IjLrzArbc9yDgUIWdzht-46">
          <mxGeometry relative="1" as="geometry">
            <mxPoint x="630" y="630" as="sourcePoint" />
            <mxPoint x="740" y="620" as="targetPoint" />
          </mxGeometry>
        </mxCell>
        <mxCell id="IjLrzArbc9yDgUIWdzht-78" value="" style="endArrow=none;html=1;rounded=0;exitX=0.526;exitY=1.003;exitDx=0;exitDy=0;entryX=0.7;entryY=0;entryDx=0;entryDy=0;entryPerimeter=0;exitPerimeter=0;" edge="1" parent="1" source="IjLrzArbc9yDgUIWdzht-46" target="IjLrzArbc9yDgUIWdzht-75">
          <mxGeometry relative="1" as="geometry">
            <mxPoint x="840" y="690" as="sourcePoint" />
            <mxPoint x="1000" y="690" as="targetPoint" />
          </mxGeometry>
        </mxCell>
        <mxCell id="IjLrzArbc9yDgUIWdzht-79" value="" style="endArrow=none;html=1;rounded=0;entryX=0.555;entryY=0.998;entryDx=0;entryDy=0;entryPerimeter=0;exitX=0.3;exitY=0;exitDx=0;exitDy=0;exitPerimeter=0;" edge="1" parent="1" source="IjLrzArbc9yDgUIWdzht-74" target="IjLrzArbc9yDgUIWdzht-46">
          <mxGeometry relative="1" as="geometry">
            <mxPoint x="550" y="610" as="sourcePoint" />
            <mxPoint x="710" y="610" as="targetPoint" />
          </mxGeometry>
        </mxCell>
        <mxCell id="IjLrzArbc9yDgUIWdzht-80" value="" style="endArrow=none;html=1;rounded=0;exitX=0.6;exitY=1;exitDx=0;exitDy=0;entryX=0.037;entryY=0.258;entryDx=0;entryDy=0;entryPerimeter=0;exitPerimeter=0;" edge="1" parent="1" source="IjLrzArbc9yDgUIWdzht-46" target="IjLrzArbc9yDgUIWdzht-73">
          <mxGeometry relative="1" as="geometry">
            <mxPoint x="860" y="710" as="sourcePoint" />
            <mxPoint x="1020" y="710" as="targetPoint" />
          </mxGeometry>
        </mxCell>
        <mxCell id="IjLrzArbc9yDgUIWdzht-81" value="" style="endArrow=none;html=1;rounded=0;exitX=0.679;exitY=1.003;exitDx=0;exitDy=0;exitPerimeter=0;entryX=0.092;entryY=0.828;entryDx=0;entryDy=0;entryPerimeter=0;" edge="1" parent="1" source="IjLrzArbc9yDgUIWdzht-46" target="IjLrzArbc9yDgUIWdzht-72">
          <mxGeometry relative="1" as="geometry">
            <mxPoint x="700" y="650" as="sourcePoint" />
            <mxPoint x="750" y="610" as="targetPoint" />
          </mxGeometry>
        </mxCell>
        <mxCell id="IjLrzArbc9yDgUIWdzht-82" value="many" style="text;strokeColor=none;fillColor=none;spacingLeft=4;spacingRight=4;overflow=hidden;rotatable=0;points=[[0,0.5],[1,0.5]];portConstraint=eastwest;fontSize=12;whiteSpace=wrap;html=1;" vertex="1" parent="1">
          <mxGeometry x="310" y="250" width="40" height="30" as="geometry" />
        </mxCell>
        <mxCell id="IjLrzArbc9yDgUIWdzht-83" value="many" style="text;strokeColor=none;fillColor=none;spacingLeft=4;spacingRight=4;overflow=hidden;rotatable=0;points=[[0,0.5],[1,0.5]];portConstraint=eastwest;fontSize=12;whiteSpace=wrap;html=1;" vertex="1" parent="1">
          <mxGeometry x="560" y="250" width="40" height="30" as="geometry" />
        </mxCell>
      </root>
    </mxGraphModel>
  </diagram>
</mxfile>
